<svg preserveAspectRatio="none" overflow="visible" style="display: block;" width="52.4975" height="26.2508" viewBox="0 0 52.4975 26.2508" fill="none" xmlns="http://www.w3.org/2000/svg">
<g id="LOGO NAV">
<path id="Vector" d="M0 11.8717V0H3.44945C4.31381 0 5.05012 0.109735 5.65837 0.331237C6.26663 0.552739 6.73282 0.898201 7.05496 1.36966C7.3771 1.84111 7.53916 2.44872 7.53916 3.19857C7.53916 3.55013 7.48714 3.87527 7.3831 4.17603C7.27905 4.47678 7.13099 4.73689 6.93491 4.9584C6.74083 5.1799 6.50273 5.35873 6.22261 5.49488C6.46671 5.53959 6.72682 5.64322 7.00694 5.80173C7.28706 5.96024 7.52316 6.22644 7.71924 6.60036C7.91332 6.97427 8.01136 7.51888 8.01136 8.23216C8.01136 8.99217 7.8753 9.64449 7.60119 10.1891C7.32707 10.7337 6.9049 11.1503 6.33266 11.4389C5.76042 11.7274 5.03611 11.8717 4.15975 11.8717H0ZM3.08529 4.95027H3.48746C3.68154 4.95027 3.84962 4.89337 3.98967 4.77957C4.12973 4.66577 4.24178 4.50523 4.32782 4.29389C4.41185 4.08458 4.45587 3.84276 4.45587 3.57045C4.45587 3.16199 4.36783 2.84701 4.19176 2.62551C4.01569 2.40401 3.78159 2.29427 3.48946 2.29427H3.0873V4.94824L3.08529 4.95027ZM3.08529 9.57539H3.83361C4.0517 9.57539 4.24178 9.51849 4.39985 9.40469C4.55791 9.2909 4.67996 9.13645 4.766 8.93731C4.85004 8.73816 4.89405 8.50446 4.89405 8.23216C4.89405 7.83589 4.79601 7.51481 4.60193 7.27096C4.40785 7.0271 4.15174 6.90518 3.83561 6.90518H3.0873V9.57539H3.08529Z" fill="#E6E6E6" fill-opacity="0.901961"/>
<path id="Vector_2" d="M13.0417 12.0587C12.3514 12.0587 11.7411 11.951 11.2129 11.7355C10.6847 11.5201 10.2345 11.2092 9.86832 10.8008C9.50017 10.3923 9.22405 9.9046 9.03997 9.33764C8.8559 8.77067 8.76386 8.13665 8.76386 7.43353V0H11.6791V7.44979C11.6791 8.19761 11.7971 8.77067 12.0332 9.16694C12.2693 9.5632 12.6055 9.76235 13.0417 9.76235C13.4778 9.76235 13.812 9.56117 14.0421 9.15881C14.2722 8.75645 14.3862 8.18745 14.3862 7.44979V0H17.3014V7.43353C17.3014 8.36425 17.1374 9.17506 16.8092 9.86599C16.4811 10.5569 16.0009 11.0975 15.3686 11.4815C14.7364 11.8676 13.96 12.0607 13.0397 12.0607L13.0417 12.0587Z" fill="#E6E6E6" fill-opacity="0.901961"/>
<path id="Vector_3" d="M18.4718 11.8717V0H21.7712C22.2174 0 22.6616 0.0711245 23.1018 0.213374C23.5419 0.355623 23.9481 0.571028 24.3163 0.859591C24.6844 1.14815 24.9805 1.51394 25.2046 1.95694C25.4287 2.39994 25.5388 2.92627 25.5388 3.53794C25.5388 3.86714 25.5048 4.17806 25.4387 4.47272C25.3727 4.76738 25.2747 5.03765 25.1466 5.2815C25.0186 5.52536 24.8645 5.73467 24.6864 5.91146C24.5083 6.08826 24.3123 6.22035 24.1002 6.31179C24.3243 6.37885 24.5084 6.48859 24.6524 6.6349C24.7965 6.78325 24.9125 6.95191 24.9966 7.14497C25.0806 7.33802 25.1386 7.53514 25.1726 7.74038C25.2066 7.94359 25.2226 8.14274 25.2226 8.33579C25.2226 8.48414 25.2307 8.70767 25.2487 9.00843C25.2647 9.30918 25.2907 9.63839 25.3247 9.99401C25.3587 10.3517 25.4107 10.6971 25.4828 11.0324C25.5548 11.3677 25.6588 11.6482 25.7929 11.8737H22.6776C22.6216 11.703 22.5775 11.4653 22.5435 11.1584C22.5095 10.8516 22.4855 10.5264 22.4675 10.181C22.4515 9.83551 22.4375 9.50833 22.4255 9.20351C22.4135 8.89666 22.4035 8.65281 22.3915 8.47195C22.3795 8.18948 22.3294 7.96188 22.2414 7.79118C22.1514 7.62048 22.0433 7.49856 21.9153 7.4254C21.7872 7.35224 21.6492 7.31567 21.5051 7.31567H21.305V11.8737H18.4738L18.4718 11.8717ZM21.301 5.01733H21.7692C21.9473 5.01733 22.1013 4.96449 22.2294 4.85679C22.3574 4.74909 22.4555 4.59668 22.5215 4.39753C22.5875 4.19838 22.6216 3.95859 22.6216 3.67409C22.6216 3.24328 22.5455 2.90595 22.3955 2.66209C22.2454 2.41823 22.0353 2.29631 21.7672 2.29631H21.299V5.01733H21.301Z" fill="#E6E6E6" fill-opacity="0.901961"/>
<path id="Vector_4" d="M26.5295 11.8717V0H32.9942V2.29631H29.3607V4.60887H32.476V6.90518H29.3607V9.57539H33.0443V11.8717H26.5295Z" fill="#E6E6E6" fill-opacity="0.901961"/>
<path id="Vector_5" d="M33.7303 11.8717L36.1753 0H40.5972L42.8741 11.8717H39.9929L38.9705 6.12281C38.7464 5.03358 38.5523 3.85495 38.3842 2.58487C38.1721 3.85495 37.9601 5.02342 37.748 6.08826L36.6095 11.8717H33.7283H33.7303ZM35.8232 9.21774V6.92143H41.0814V9.21774H35.8232Z" fill="#E6E6E6" fill-opacity="0.901961"/>
<path id="Vector_6" d="M47.3022 12.0587C46.6119 12.0587 46.0017 11.951 45.4734 11.7355C44.9452 11.5201 44.495 11.2092 44.1289 10.8008C43.7607 10.3923 43.4846 9.9046 43.3005 9.33764C43.1165 8.77067 43.0244 8.13665 43.0244 7.43353V0H45.9396V7.44979C45.9396 8.19761 46.0577 8.77067 46.2938 9.16694C46.5299 9.5632 46.866 9.76235 47.3022 9.76235C47.7384 9.76235 48.0725 9.56117 48.3026 9.15881C48.5327 8.75645 48.6468 8.18745 48.6468 7.44979V0H51.562V7.43353C51.562 8.36425 51.3979 9.17506 51.0698 9.86599C50.7417 10.5569 50.2614 11.0975 49.6292 11.4815C48.9969 11.8676 48.2206 12.0607 47.3002 12.0607L47.3022 12.0587Z" fill="#E6E6E6" fill-opacity="0.901961"/>
<path id="Vector_7" d="M0 26.0436V14.1719H3.05128L5.45429 20.7722C5.42027 19.49 5.40427 18.3052 5.40427 17.218V14.1739H8.20544V26.0456H5.12215L2.75115 19.4127C2.78517 20.695 2.80118 21.8797 2.80118 22.9669V26.0456H0V26.0436Z" fill="#E6E6E6" fill-opacity="0.901961"/>
<path id="Vector_8" d="M13.3769 26.2508C12.7067 26.2508 12.1004 26.1024 11.5602 25.8078C11.0179 25.5131 10.5517 25.0925 10.1616 24.5499C9.77142 24.0053 9.4713 23.3591 9.26521 22.6112C9.05912 21.8634 8.95508 21.0302 8.95508 20.1117C8.95508 19.3862 9.02111 18.7095 9.15516 18.0796C9.28922 17.4496 9.4853 16.8827 9.74141 16.3787C9.99752 15.8747 10.3056 15.4439 10.6618 15.0863C11.0179 14.7286 11.4261 14.4543 11.8843 14.2612C12.3425 14.0682 12.8387 13.9727 13.3749 13.9727C14.0552 13.9727 14.6675 14.121 15.2097 14.4157C15.7519 14.7103 16.2141 15.131 16.6003 15.6735C16.9844 16.2182 17.2806 16.8644 17.4887 17.6122C17.6947 18.36 17.7988 19.1932 17.7988 20.1117C17.7988 20.8372 17.7328 21.5159 17.5987 22.1438C17.4646 22.7738 17.2726 23.3408 17.0205 23.8447C16.7704 24.3487 16.4642 24.7795 16.1081 25.1372C15.7499 25.4948 15.3438 25.7692 14.8856 25.9622C14.4274 26.1553 13.9252 26.2508 13.3789 26.2508H13.3769ZM13.3769 23.9565C13.577 23.9565 13.7591 23.8976 13.9212 23.7777C14.0832 23.6578 14.2273 23.4891 14.3573 23.2676C14.4854 23.0461 14.5914 22.7799 14.6755 22.469C14.7595 22.1581 14.8235 21.8025 14.8676 21.4062C14.9116 21.0099 14.9336 20.5791 14.9336 20.1138C14.9336 19.5346 14.8996 19.0103 14.8335 18.5409C14.7675 18.0715 14.6655 17.665 14.5314 17.3257C14.3974 16.9863 14.2333 16.7242 14.0372 16.5433C13.8411 16.3624 13.621 16.271 13.3749 16.271C13.1748 16.271 12.9928 16.3299 12.8307 16.4498C12.6686 16.5697 12.5226 16.7384 12.3945 16.9599C12.2665 17.1814 12.1604 17.4476 12.0764 17.7585C11.9924 18.0715 11.9283 18.4251 11.8843 18.8213C11.8403 19.2176 11.8183 19.6484 11.8183 20.1138C11.8183 20.6929 11.8523 21.2172 11.9183 21.6866C11.9843 22.1581 12.0864 22.5625 12.2204 22.9018C12.3545 23.2412 12.5186 23.5033 12.7147 23.6842C12.9107 23.8651 13.1308 23.9565 13.3769 23.9565Z" fill="#E6E6E6" fill-opacity="0.901961"/>
<path id="Vector_9" d="M18.4678 26.0436V14.1719H21.7672C22.2133 14.1719 22.6575 14.243 23.0977 14.3852C23.5379 14.5275 23.9441 14.7429 24.3122 15.0315C24.6804 15.32 24.9765 15.6858 25.2006 16.1288C25.4247 16.5718 25.5347 17.0981 25.5347 17.7098C25.5347 18.039 25.5007 18.3499 25.4347 18.6446C25.3687 18.9393 25.2706 19.2095 25.1426 19.4534C25.0145 19.6972 24.8605 19.9065 24.6824 20.0833C24.5043 20.2601 24.3082 20.3922 24.0961 20.4837C24.3202 20.5507 24.5043 20.6605 24.6484 20.8068C24.7924 20.9551 24.9085 21.1238 24.9925 21.3168C25.0765 21.5099 25.1346 21.707 25.1686 21.9123C25.2026 22.1155 25.2186 22.3146 25.2186 22.5077C25.2186 22.656 25.2266 22.8796 25.2446 23.1803C25.2606 23.4811 25.2866 23.8103 25.3206 24.1659C25.3547 24.5235 25.4067 24.869 25.4787 25.2043C25.5507 25.5396 25.6548 25.82 25.7888 26.0456H22.6735C22.6175 25.8749 22.5735 25.6372 22.5395 25.3303C22.5055 25.0234 22.4815 24.6983 22.4634 24.3528C22.4474 24.0074 22.4334 23.6802 22.4214 23.3754C22.4094 23.0685 22.3994 22.8247 22.3874 22.6438C22.3754 22.3614 22.3254 22.1338 22.2374 21.9631C22.1473 21.7924 22.0393 21.6704 21.9112 21.5973C21.7832 21.5241 21.6451 21.4875 21.501 21.4875H21.301V26.0456H18.4698L18.4678 26.0436ZM21.299 19.1892H21.7672C21.9452 19.1892 22.0993 19.1364 22.2273 19.0287C22.3554 18.921 22.4534 18.7686 22.5195 18.5694C22.5855 18.3703 22.6195 18.1305 22.6195 17.846C22.6195 17.4152 22.5435 17.0778 22.3934 16.834C22.2434 16.5901 22.0333 16.4682 21.7652 16.4682H21.297V19.1892H21.299Z" fill="#E6E6E6" fill-opacity="0.901961"/>
<path id="Vector_10" d="M26.2734 26.0456V14.1739H29.5388L30.2931 16.8096C30.5172 17.5127 30.6913 18.1447 30.8213 18.7056C30.9494 19.2664 31.0755 19.8659 31.1975 20.4999C31.3316 19.8537 31.4656 19.2522 31.5997 18.6974C31.7337 18.1427 31.8958 17.5188 32.0859 16.8258L32.8402 14.1719H36.0896V26.0436H33.4264V22.8125C33.4144 22.0647 33.4144 21.4042 33.4264 20.8312C33.4384 20.2581 33.4605 19.6485 33.4925 19.0022C33.3464 19.6485 33.2083 20.25 33.0743 20.8047C32.9402 21.3595 32.7842 21.9895 32.6061 22.6926L32.272 24.0013H30.111L29.7589 22.6926C29.5588 21.9773 29.3907 21.3433 29.2567 20.7885C29.1226 20.2337 28.9886 19.6383 28.8545 19.0022C28.8765 19.6607 28.8945 20.2744 28.9045 20.8474C28.9145 21.4205 28.9205 22.0687 28.9205 22.7942V26.0436H26.2754L26.2734 26.0456Z" fill="#E6E6E6" fill-opacity="0.901961"/>
<path id="Vector_11" d="M36.6055 26.0436L39.0505 14.1719H43.4724L45.7494 26.0436H42.8681L41.8457 20.2947C41.6216 19.2055 41.4275 18.0268 41.2595 16.7567C41.0474 18.0268 40.8353 19.1953 40.6232 20.2601L39.4847 26.0436H36.6035H36.6055ZM38.6984 23.3896V21.0933H43.9566V23.3896H38.6984Z" fill="#E6E6E6" fill-opacity="0.901961"/>
<path id="Vector_12" d="M46.1328 26.0436V14.1719H48.964V23.7473H52.4975V26.0436H46.1328Z" fill="#E6E6E6" fill-opacity="0.901961"/>
</g>
</svg>
