<svg preserveAspectRatio="none" overflow="visible" style="display: block;" width="33.2484" height="25.5827" viewBox="0 0 33.2484 25.5827" fill="none" xmlns="http://www.w3.org/2000/svg">
<g id="EYE BOTTOM">
<path id="Vector" d="M16.6242 25.5557C21.945 25.5557 26.0481 24.3928 28.9335 22.0671C31.8189 19.7414 33.2484 16.6493 33.2484 12.7908C33.2484 8.93226 31.8189 5.84015 28.9335 3.51446C26.0481 1.18876 21.945 0.0259069 16.6242 0.0259069C11.3034 0.0259069 7.20028 1.18876 4.31487 3.51446C1.42946 5.84015 0 8.93226 0 12.7908C0 16.6493 1.42946 19.7414 4.31487 22.0671C7.20028 24.3928 11.3034 25.5557 16.6242 25.5557Z" fill="#EDEBE9"/>
<path id="Vector_2" d="M6.74962 12.7913C6.74962 16.8877 7.64965 20.0327 9.44973 22.2527C11.2498 24.4727 13.6322 25.5827 16.6235 25.5827C19.6148 25.5827 21.9973 24.4727 23.7973 22.2527C25.5974 20.0327 26.4974 16.8877 26.4974 12.7913C26.4974 8.69494 25.5974 5.54997 23.7973 3.32998C21.9973 1.11 19.6148 1.8239e-05 16.6235 1.8239e-05C13.6322 1.8239e-05 11.2498 1.11 9.44973 3.32998C7.64965 5.54997 6.74962 8.69494 6.74962 12.7913Z" fill="#222222"/>
</g>
</svg>
